REM DIRINDEX 1\2\3,1\2\4,1\2\5,1\2\6
REM DIRNAME folder01,folder02,folder03,folder04,folder05,folder06
TITLE ""
FILE "091 091.mp3" MP3
  TRACK 01 AUDIO
    TITLE "0:"
    INDEX 01 00:00:00
  TRACK 02 AUDIO
    TITLE "3:cjc157_3434"
    INDEX 01 00:00:11
  TRACK 03 AUDIO
    TITLE "0:"
    INDEX 01 00:01:30
  TRACK 04 AUDIO
    TITLE "4:cjc157_3435"
    INDEX 01 00:02:00
  TRACK 05 AUDIO
    TITLE "0:"
    INDEX 01 00:03:15
  TRACK 06 AUDIO
    TITLE "5:cjc157_3436"
    INDEX 01 00:03:63
  TRACK 07 AUDIO
    TITLE "0:"
    INDEX 01 00:08:36
  TRACK 08 AUDIO
    TITLE "3:cjc157_3437"
    INDEX 01 00:09:06
  TRACK 09 AUDIO
    TITLE "0:"
    INDEX 01 00:10:27
  TRACK 10 AUDIO
    TITLE "4:cjc157_3438"
    INDEX 01 00:10:74
  TRACK 11 AUDIO
    TITLE "0:"
    INDEX 01 00:12:26
  TRACK 12 AUDIO
    TITLE "5:cjc157_3439"
    INDEX 01 00:12:73
  TRACK 13 AUDIO
    TITLE "0:"
    INDEX 01 00:16:04
  TRACK 14 AUDIO
    TITLE "3:cjc157_3440"
    INDEX 01 00:16:53
  TRACK 15 AUDIO
    TITLE "0:"
    INDEX 01 00:17:35
  TRACK 16 AUDIO
    TITLE "4:cjc157_3441"
    INDEX 01 00:18:05
  TRACK 17 AUDIO
    TITLE "0:"
    INDEX 01 00:19:09
  TRACK 18 AUDIO
    TITLE "5:cjc157_3442"
    INDEX 01 00:19:62
  TRACK 19 AUDIO
    TITLE "0:"
    INDEX 01 00:21:21
  TRACK 20 AUDIO
    TITLE "5:cjc157_3443"
    INDEX 01 00:21:68
  TRACK 21 AUDIO
    TITLE "0:"
    INDEX 01 00:25:15
  TRACK 22 AUDIO
    TITLE "3:cjc157_3444"
    INDEX 01 00:25:60
  TRACK 23 AUDIO
    TITLE "0:"
    INDEX 01 00:26:71
  TRACK 24 AUDIO
    TITLE "4:cjc157_3445"
    INDEX 01 00:27:41
  TRACK 25 AUDIO
    TITLE "0:"
    INDEX 01 00:28:53
  TRACK 26 AUDIO
    TITLE "5:cjc157_3446"
    INDEX 01 00:29:25
  TRACK 27 AUDIO
    TITLE "0:"
    INDEX 01 00:31:41
  TRACK 28 AUDIO
    TITLE "5:cjc157_3447"
    INDEX 01 00:32:11
  TRACK 29 AUDIO
    TITLE "0:"
    INDEX 01 00:35:02
  TRACK 30 AUDIO
    TITLE "3:cjc157_3448"
    INDEX 01 00:35:49
  TRACK 31 AUDIO
    TITLE "0:"
    INDEX 01 00:36:54
  TRACK 32 AUDIO
    TITLE "4:cjc157_3449"
    INDEX 01 00:37:28
  TRACK 33 AUDIO
    TITLE "0:"
    INDEX 01 00:38:45
  TRACK 34 AUDIO
    TITLE "5:cjc157_3450"
    INDEX 01 00:39:15
  TRACK 35 AUDIO
    TITLE "0:"
    INDEX 01 00:42:74
  TRACK 36 AUDIO
    TITLE "5:cjc157_3451"
    INDEX 01 00:43:46
  TRACK 37 AUDIO
    TITLE "0:"
    INDEX 01 00:45:04
  TRACK 38 AUDIO
    TITLE "3:cjc157_3452"
    INDEX 01 00:45:51
  TRACK 39 AUDIO
    TITLE "0:"
    INDEX 01 00:46:60
  TRACK 40 AUDIO
    TITLE "4:cjc157_3453"
    INDEX 01 00:47:30
  TRACK 41 AUDIO
    TITLE "0:"
    INDEX 01 00:48:44
  TRACK 42 AUDIO
    TITLE "5:cjc157_3454"
    INDEX 01 00:49:10
  TRACK 43 AUDIO
    TITLE "0:"
    INDEX 01 00:51:01
  TRACK 44 AUDIO
    TITLE "5:cjc157_3455"
    INDEX 01 00:51:46
  TRACK 45 AUDIO
    TITLE "0:"
    INDEX 01 00:53:72
  TRACK 46 AUDIO
    TITLE "3:cjc157_3456"
    INDEX 01 00:54:44
  TRACK 47 AUDIO
    TITLE "0:"
    INDEX 01 00:55:57
  TRACK 48 AUDIO
    TITLE "4:cjc157_3457"
    INDEX 01 00:56:25
  TRACK 49 AUDIO
    TITLE "0:"
    INDEX 01 00:57:41
  TRACK 50 AUDIO
    TITLE "5:cjc157_3458"
    INDEX 01 00:58:07
  TRACK 51 AUDIO
    TITLE "0:"
    INDEX 01 01:00:35
  TRACK 52 AUDIO
    TITLE "5:cjc157_3459"
    INDEX 01 01:01:01
  TRACK 53 AUDIO
    TITLE "0:"
    INDEX 01 01:03:00
  TRACK 54 AUDIO
    TITLE "3:cjc157_3460"
    INDEX 01 01:03:49
  TRACK 55 AUDIO
    TITLE "0:"
    INDEX 01 01:04:68
  TRACK 56 AUDIO
    TITLE "4:cjc157_3461"
    INDEX 01 01:05:38
  TRACK 57 AUDIO
    TITLE "0:"
    INDEX 01 01:06:34
  TRACK 58 AUDIO
    TITLE "5:cjc157_3462"
    INDEX 01 01:07:02
  TRACK 59 AUDIO
    TITLE "0:"
    INDEX 01 01:09:18
  TRACK 60 AUDIO
    TITLE "5:cjc157_3463"
    INDEX 01 01:09:61
  TRACK 61 AUDIO
    TITLE "0:"
    INDEX 01 01:12:32
  TRACK 62 AUDIO
    TITLE "3:cjc157_3464"
    INDEX 01 01:13:02
  TRACK 63 AUDIO
    TITLE "0:"
    INDEX 01 01:14:25
  TRACK 64 AUDIO
    TITLE "4:cjc157_3465"
    INDEX 01 01:14:70
  TRACK 65 AUDIO
    TITLE "0:"
    INDEX 01 01:15:74
  TRACK 66 AUDIO
    TITLE "5:cjc157_3466"
    INDEX 01 01:16:50
  TRACK 67 AUDIO
    TITLE "0:"
    INDEX 01 01:18:53
  TRACK 68 AUDIO
    TITLE "5:cjc157_3467"
    INDEX 01 01:19:27
  TRACK 69 AUDIO
    TITLE "0:"
    INDEX 01 01:20:67
  TRACK 70 AUDIO
    TITLE "3:cjc157_3468"
    INDEX 01 01:21:37
  TRACK 71 AUDIO
    TITLE "0:"
    INDEX 01 01:22:42
  TRACK 72 AUDIO
    TITLE "4:cjc157_3469"
    INDEX 01 01:23:15
  TRACK 73 AUDIO
    TITLE "0:"
    INDEX 01 01:24:18
  TRACK 74 AUDIO
    TITLE "5:cjc157_3470"
    INDEX 01 01:24:59
  TRACK 75 AUDIO
    TITLE "0:"
    INDEX 01 01:26:74
  TRACK 76 AUDIO
    TITLE "5:cjc157_3471"
    INDEX 01 01:27:44
  TRACK 77 AUDIO
    TITLE "0:"
    INDEX 01 01:29:66
